
              <svg id="sw-js-blob-svg" viewBox="0 0 100 100" xmlns="http://www.w3.org/2000/svg" version="1.1">
                    <defs> 
                        <linearGradient id="sw-gradient" x1="0" x2="1" y1="1" y2="0">
                            <stop id="stop1" stop-color="rgba(250.816, 116.141, 52.401, 1)" offset="0%"></stop>
                            <stop id="stop2" stop-color="rgba(151.059, 0.14, 248.54, 1)" offset="100%"></stop>
                        </linearGradient>
                    </defs>
                <path fill="url(#sw-gradient)" d="M27.3,-33.2C34.5,-26.6,38.6,-17.1,40.8,-6.9C42.9,3.3,43,14.1,36.2,16.3C29.5,18.6,15.8,12.2,6,15.2C-3.8,18.2,-9.7,30.5,-16.8,33.4C-23.9,36.3,-32.3,29.9,-36.2,21.6C-40.1,13.3,-39.6,3.2,-36.8,-5.4C-33.9,-13.9,-28.7,-21,-22.2,-27.7C-15.7,-34.4,-7.8,-40.8,1.1,-42.1C10.1,-43.5,20.2,-39.8,27.3,-33.2Z" width="100%" height="100%" transform="translate(50 50)" stroke-width="0" style="transition: all 0.3s ease 0s;"></path>
              </svg>